<?xml version="1.0" encoding="UTF-8"?>
<svg width="1404px" height="460px" viewBox="0 0 1404 460" version="1.1" xmlns="http://www.w3.org/2000/svg" xmlns:xlink="http://www.w3.org/1999/xlink">
    <title>simply</title>
    <g id="Page-1" stroke="none" stroke-width="1" fill="none" fill-rule="evenodd">
        <g id="simply" fill="#2597D0" fill-rule="nonzero">
            <path d="M252.69,267.27 C252.37,190.17 144.76,218.18 144.76,186.8 C144.76,181.8 152.56,170.64 174.55,170.64 C205.41,170.64 205.21,188.64 224.37,188.64 C231.29,188.64 243.95,185.99 243.95,168.42 C243.95,148.56 214.61,131.59 174.52,131.59 C136.03,131.59 103.47,152.69 103.47,186.8 C103.47,260.35 212.13,228.27 212.72,267.63 C212.43,279.28 198.54,287.36 177.5,287.36 C144.85,287.36 138.91,267.26 118.64,267.26 C111.32,267.26 97.93,270.07 97.93,288.65 C97.93,309.65 135.12,328.73 177.53,328.73 C224.97,328.73 252.53,303.56 252.69,267.66 L252.69,267.66 L252.69,267.32 L252.69,267.27 Z" id="Path"></path>
            <path d="M860.11,131.57 L853.91,131.57 C844.532557,131.59746 836.93746,139.192557 836.91,148.57 L836.91,361.25 C836.93746,370.627443 844.532557,378.22254 853.91,378.25 L860.11,378.25 C869.487443,378.22254 877.08254,370.627443 877.11,361.25 L877.11,309.25 C893.219548,321.095163 912.694366,327.479316 932.69,327.47 C985.56,327.47 1028.41,283.54 1028.41,229.36 C1028.41,175.18 985.56,131.25999 932.69,131.25999 C912.694366,131.250684 893.219548,137.634837 877.11,149.48 L877.11,148.54 C877.066095,139.174275 869.475788,131.597363 860.11,131.57 Z M932.69,171.5 C963.89,171.5 989.19,197.42 989.19,229.4 C989.19,261.38 963.89,287.31 932.69,287.31 C904.96,287.31 881.91,266.84 877.11,239.84 L877.11,219 C881.91,192 905,171.5 932.69,171.5 Z" id="Shape"></path>
            <rect id="Rectangle" x="324.66" y="131.57" width="40.22" height="197.1" rx="17.01"></rect>
            <rect id="Rectangle" x="324.66" y="77.16" width="40.22" height="48.74" rx="17.01"></rect>
            <rect id="Rectangle" x="1103.92" y="81.81" width="40.22" height="246.69" rx="17.01"></rect>
            <path d="M1403.28,23.21 L1403.28,17 C1403.25254,7.622557 1395.65744,0.027459746 1386.28,0 L90.68,0 L90.31,0 L90.17,0 L72.9,0 C34.7910869,3.84518198 4.5068727,33.7173377 0.14,71.77 L0.08,72.27 C0.08,72.49 0.02,72.71 0,72.93 L0,387 C3.84349648,425.579166 34.3356048,456.108914 72.91,460 L1327.18,460 C1328.72925,459.994413 1330.27037,459.775695 1331.76,459.35 C1367.34729,453.656802 1394.94839,425.229663 1399.59,389.49 C1399.70564,388.861679 1399.78577,388.22734 1399.83,387.59 L1399.89,387.1 L1399.89,148.58 C1399.86254,139.202557 1392.26744,131.60746 1382.89,131.58 L1376.69,131.58 C1367.31483,131.612915 1359.72291,139.204827 1359.69,148.58 L1359.69,238.4 L1359.69,238.4 C1359.69,238.66 1359.69,242.06 1359.69,242.31 C1359.69,266.69 1340.75,286.45 1317.38,286.45 C1294.01,286.45 1275,266.69 1275,242.31 C1275,242.06 1275,238.66 1275,238.4 L1275,238.4 L1275,148.58 C1274.97254,139.202557 1267.37744,131.60746 1258,131.58 L1251.79,131.58 C1242.41256,131.60746 1234.81746,139.202557 1234.79,148.58 L1234.79,238.92 C1234.79,239.01 1234.79,239.1 1234.79,239.19 C1234.79,240.28 1234.79,242.13 1234.79,242.31 C1234.79,289.86 1271.79,328.4 1317.32,328.4 C1332.28701,328.401735 1346.95129,324.18372 1359.63,316.23 L1359.63,373.65 C1359.63,373.83 1359.63,374 1359.63,374.18 C1359.63,374.36 1359.63,374.47 1359.63,374.62 L1359.63,381.3 C1358.0714,401.856627 1341.745,418.20002 1321.19,419.78 L78.67,419.78 C58.0726042,418.197664 41.7274647,401.793011 40.22,381.19 L40.22,374.79 L40.22,374.18 C40.22,374 40.22,373.83 40.22,373.65 L40.22,332 L40.22,332 L40.22,128 L40.22,128 L40.22,86.35 C40.22,86.17 40.22,86 40.22,85.82 C40.22,85.64 40.22,85.49 40.22,85.33 L40.22,78.74 C41.0576422,67.6060545 46.3138519,57.2696905 54.8174617,50.0340146 C63.3210715,42.7983386 74.3655459,39.2645381 85.49,40.22 L1386.27,40.22 C1395.65297,40.1925402 1403.25254,32.5929658 1403.28,23.21 Z" id="Path"></path>
            <path d="M669.16,131.299997 C643.99,131.299997 621.47,143.07 606.33,161.6 C591.19,143.07 568.67,131.299997 543.51,131.299997 C528.267256,131.295725 513.343376,135.665298 500.51,143.89 C498.401496,136.611825 491.747401,131.594784 484.17,131.57 L478,131.57 C468.624827,131.602915 461.032915,139.194827 461,148.57 L461,311.67 C461.038358,321.042906 468.627094,328.631642 478,328.67 L484.2,328.67 C493.575173,328.637085 501.167085,321.045173 501.2,311.67 L501.2,221.31 L501.2,221.31 C501.2,221.05 501.2,217.65 501.2,217.39 C501.2,193.01 520.15,173.25 543.52,173.25 C566.44,173.25 585.09,192.25 585.8,216 L585.8,311.67 C585.832915,321.045173 593.424827,328.637085 602.8,328.67 L609.86,328.67 C619.235173,328.637085 626.827085,321.045173 626.86,311.67 L626.86,221.31 L626.86,221.31 L626.86,216.79 C627.17,192.69 645.98,173.25 669.16,173.25 C692.53,173.25 711.47,193.01 711.47,217.39 C711.47,217.65 711.47,221.05 711.47,221.31 L711.47,221.31 L711.47,311.67 C711.508358,321.042906 719.097094,328.631642 728.47,328.67 L734.67,328.67 C744.045173,328.637085 751.637085,321.045173 751.670008,311.67 L751.670008,220.67 C751.670008,220.58 751.670008,220.5 751.670008,220.41 C751.670008,219.31 751.670008,217.54 751.670008,217.35 C751.69,169.84 714.74,131.299997 669.16,131.299997 Z" id="Path"></path>
        </g>
    </g>
</svg>